Coordinates
version=1
nRows=43
nColumns=12
inDegrees=yes

Units are S.I. units (second, meters, Newtons, ...)
Angles are in degrees

endheader
time	SC_y	SC_z	SC_x	AC_y	AC_z	AC_x	GH_y	GH_z	GH_yy	EL_x	PS_y
       0.0              -34.65          33.88          5.944          47.88          -15.2         -13.05           51.6          87.06         -45.14          136.8          26.79
   0.03375              -34.65          33.87          5.955          47.88          -15.2         -13.05          51.58          87.06         -45.12          136.8          26.81
    0.0675              -34.65          33.87          5.967          47.88          -15.2         -13.05          51.56          87.04         -45.09          136.8          26.82
    0.1012              -34.66          33.87          5.979          47.88          -15.2         -13.05          51.54          87.03         -45.07          136.8          26.84
     0.135              -34.66          33.86          5.992          47.88          -15.2         -13.05          51.51          87.02         -45.04          136.8          26.86
    0.1687              -34.66          33.86          6.006          47.88          -15.2         -13.05          51.48          87.01         -45.01          136.8          26.89
    0.2025              -34.67          33.85          6.021          47.88          -15.2         -13.05          51.45           87.0         -44.97          136.8          26.91
    0.2362              -34.67          33.85          6.037          47.88          -15.2         -13.05          51.42          86.98         -44.94          136.8          26.93
      0.27              -34.67          33.84          6.054          47.88          -15.2         -13.05          51.39          86.97          -44.9          136.8          26.96
    0.3037              -34.68          33.84          6.072          47.88          -15.2         -13.05          51.35          86.95         -44.86          136.8          26.99
    0.3375              -34.68          33.83          6.092          47.88          -15.2         -13.05          51.31          86.93         -44.81          136.8          27.02
    0.3712              -34.69          33.83          6.113          47.88          -15.2         -13.05          51.27          86.91         -44.77          136.8          27.05
     0.405              -34.69          33.82          6.135          47.87         -15.19         -13.06          51.23          86.89         -44.72          136.8          27.09
    0.4387               -34.7          33.81           6.16          47.87         -15.19         -13.06          51.18          86.87         -44.66          136.7          27.13
    0.4725              -34.71          33.81          6.187          47.87         -15.19         -13.06          51.13          86.85          -44.6          136.7          27.17
    0.5062              -34.71           33.8          6.215          47.87         -15.19         -13.06          51.07          86.82         -44.54          136.7          27.22
      0.54              -34.72          33.79          6.247          47.87         -15.19         -13.06          51.01          86.79         -44.47          136.7          27.27
    0.5737              -34.73          33.78          6.281          47.87         -15.19         -13.06          50.94          86.76         -44.39          136.7          27.32
    0.6075              -34.74          33.77          6.318          47.86         -15.19         -13.06          50.87          86.73         -44.31          136.7          27.38
    0.6412              -34.75          33.76          6.359          47.86         -15.19         -13.07          50.79          86.69         -44.22          136.7          27.44
     0.675              -34.76          33.74          6.404          47.86         -15.19         -13.07           50.7          86.65         -44.11          136.7          27.51
    0.7087              -34.77          33.73          6.453          47.86         -15.19         -13.07           50.6          86.61          -44.0          136.7          27.59
    0.7425              -34.78          33.71          6.508          47.86         -15.19         -13.07           50.5          86.56         -43.88          136.6          27.68
    0.7762               -34.8           33.7          6.568          47.85         -15.18         -13.07          50.38           86.5         -43.75          136.6          27.77
      0.81              -34.82          33.68          6.635          47.85         -15.18         -13.08          50.25          86.44          -43.6          136.6          27.88
    0.8437              -34.83          33.66           6.71          47.84         -15.18         -13.08           50.1          86.38         -43.43          136.6           28.0
    0.8775              -34.85          33.63          6.794          47.84         -15.18         -13.08          49.94           86.3         -43.24          136.5          28.13
    0.9112              -34.88           33.6          6.888          47.84         -15.18         -13.09          49.75          86.22         -43.03          136.5          28.28
     0.945               -34.9          33.57          6.995          47.83         -15.17         -13.09          49.54          86.12         -42.79          136.5          28.44
    0.9787              -34.93          33.54          7.116          47.82         -15.17          -13.1           49.3          86.01         -42.52          136.4          28.64
     1.012              -34.96           33.5          7.254          47.82         -15.17          -13.1          49.03          85.89         -42.21          136.4          28.85
     1.046               -35.0          33.45          7.413          47.81         -15.16         -13.11          48.72          85.74         -41.85          136.4           29.1
      1.08              -35.05           33.4          7.596           47.8         -15.16         -13.12          48.36          85.58         -41.44          136.3          29.39
     1.114               -35.1          33.34          7.809          47.79         -15.15         -13.13          47.95          85.39         -40.97          136.2          29.73
     1.147              -35.16          33.27          8.057          47.78         -15.15         -13.14          47.46          85.16         -40.41          136.1          30.12
     1.181              -35.23          33.18          8.351          47.76         -15.14         -13.15          46.88           84.9         -39.75          136.1          30.58
     1.215              -35.31          33.08            8.7          47.74         -15.13         -13.16           46.2          84.59         -38.97          135.9          31.13
     1.249              -35.42          32.96          9.118          47.72         -15.12         -13.18          45.38          84.21         -38.03          135.8          31.79
     1.282              -35.54          32.82          9.623           47.7         -15.11          -13.2          44.38          83.76          -36.9          135.7          32.59
     1.316              -35.69          32.64          10.24          47.67         -15.09         -13.23          43.17           83.2         -35.51          135.5          33.56
      1.35              -35.87          32.42           11.0          47.63         -15.07         -13.26          41.68          82.52         -33.81          135.2          34.77
     1.384               -36.1          32.14          11.95          47.58         -15.05          -13.3          39.81          81.66         -31.67          134.9          36.26
     1.417              -36.39           31.8          13.15          47.52         -15.02         -13.35          37.46          80.58         -28.99          134.5          38.15
